<?xml version="1.0" standalone="no"?>
<!DOCTYPE svg PUBLIC "-//W3C//DTD SVG 20010904//EN"
 "http://www.w3.org/TR/2001/REC-SVG-20010904/DTD/svg10.dtd">
<svg version="1.0" xmlns="http://www.w3.org/2000/svg"
 width="540pt" height="791pt" viewBox="0 0 540.000000 791.000000"
 preserveAspectRatio="xMidYMid meet">
<metadata>
Created by potrace 1.13, written by Peter Selinger 2001-2015
</metadata>
<g transform="translate(0.000000,791.000000) scale(0.100000,-0.100000)"
fill="#128f76" stroke="none">
<path d="M2601 7899 c-605 -54 -1205 -341 -1620 -774 -415 -435 -656 -962
-711 -1560 -51 -557 100 -1149 414 -1619 112 -168 187 -258 340 -411 264 -263
576 -461 929 -589 626 -227 1326 -202 1936 68 l98 44 -300 -397 c-165 -218
-522 -686 -792 -1041 -557 -730 -641 -841 -861 -1135 -86 -116 -193 -254 -238
-308 -44 -53 -87 -108 -95 -121 -19 -32 -8 -56 27 -56 24 0 276 244 1727 1670
935 919 1755 1727 1823 1794 140 142 144 152 87 222 -19 23 -35 45 -35 49 0 3
-280 315 -622 693 -534 590 -749 838 -882 1014 l-28 38 568 576 c313 317 577
588 586 603 10 14 29 31 43 37 l25 10 -58 85 c-96 141 -169 228 -311 369 -201
201 -410 350 -669 480 -423 211 -905 301 -1381 259z m2268 -1272 c-34 -29 -64
-53 -334 -267 -126 -101 -237 -189 -245 -197 -8 -7 -33 -27 -55 -44 -22 -17
-187 -164 -367 -326 -239 -216 -328 -302 -328 -318 0 -15 150 -178 484 -528
267 -279 509 -535 539 -570 107 -122 597 -742 595 -752 -2 -6 -487 -492 -1078
-1080 -591 -589 -1068 -1061 -1059 -1050 9 11 96 124 195 250 98 127 489 604
869 1060 379 457 695 837 702 845 6 9 13 28 15 43 3 27 -51 66 -1217 876
-1053 732 -1220 852 -1223 875 -2 18 2 28 15 32 39 13 2236 1041 2362 1106
140 71 174 83 130 45z"/>
</g>
</svg>
